<svg xmlns="http://www.w3.org/2000/svg" viewBox="0 -4 180 234">
  <path fill-rule="evenodd" d="M155.714 186.084a18 18 0 0 0 18.064-17.998v-64.833a18 18 0 0 0-18-18h-14.836a4 4 0 0 1-4-4v-9.43H19.912l.295 138.213a4 4 0 0 0 1.85 3.365c5.212 3.018 21.921 8.75 57.004 8.75 35.825 0 51.839-7.674 56.424-11.139a3.98 3.98 0 0 0 1.438-3.062v-17.924a4 4 0 0 1 4.083-3.999c4.42.062 9.69.071 14.708.057Zm-18.772-79.806a5 5 0 0 1 5-5h12.738a5 5 0 0 1 5 5v58.185a5 5 0 0 1-5 5h-12.738a5 5 0 0 1-5-5Z"/>
  <path d="M43.739 28.505c2.473-4.998 7.628-8.088 13.574-8.44 7.167-.424 11.167 4.197 11.167 3.787 0-11.012 8.928-19.938 19.941-19.938 11.014 0 19.936 8.926 19.936 19.938 0 .113 4.241-4.967 10.965-4.783 7.924.217 14.355 6.427 14.355 14.355 0 4.103-4.236 10.728-4.236 10.728a15.1 15.1 0 0 1 22.73 13.315c0 7.666-5.691 14.001-13.079 15.012a22.34 22.34 0 0 0-4.891 1.27c-4.391 1.655-8.881 3.027-13.417 4.159a16.66 16.66 0 0 1-1.909 6.231 20.72 20.72 0 0 0-2.38 11.257l.007 1.71c0 4.956-4.016 7.972-8.976 7.972a8.971 8.971 0 0 1-8.971-8.972c0-2-1.177-4.388-3.11-5.587a16.84 16.84 0 0 1-7.046-8.297c-25.55.846-48.861-3.64-60.612-6.809a98.22 98.22 0 0 0-9.171-2.13 15.11 15.11 0 0 1-12.543-15.136c0-8.245 6.581-14.952 14.781-15.149-6.472-5.418.795-18.648 11.537-19.148 5.566-.259 11.348 4.655 11.348 4.655Z"/>
</svg>
