<svg xmlns="http://www.w3.org/2000/svg" viewBox="0 0 24 24">
  <path fill="#ffffff" d="M12 .297a12 12 0 0 0-3.79 23.385c.6.111.82-.261.82-.577 0-.286-.011-1.04-.016-2.04-3.338.724-4.042-1.61-4.042-1.61-.546-1.387-1.333-1.756-1.333-1.756-1.089-.745.083-.729.083-.729 1.205.085 1.839 1.237 1.839 1.237 1.07 1.834 2.807 1.304 3.492.997.108-.775.419-1.304.762-1.604-2.665-.305-5.466-1.333-5.466-5.931 0-1.31.469-2.381 1.236-3.221-.124-.303-.535-1.524.117-3.176 0 0 1.008-.322 3.301 1.23A11.5 11.5 0 0 1 12 6.096c1.02.005 2.045.138 3.003.404 2.291-1.552 3.297-1.23 3.297-1.23.653 1.653.242 2.874.118 3.177.77.84 1.235 1.91 1.235 3.221 0 4.61-2.805 5.624-5.479 5.921.43.372.814 1.103.814 2.222 0 1.606-.015 2.898-.015 3.293 0 .319.216.694.825.576A12.002 12.002 0 0 0 12 .297Z"/>
</svg>
