<?xml version="1.0" encoding="UTF-8" standalone="no"?>
<svg
   viewBox="0 0 512 512"
   version="1.1"
   id="svg9"
   sodipodi:docname="tailscale-active.svg"
   inkscape:export-filename="tailscale-active.png"
   inkscape:export-xdpi="96"
   inkscape:export-ydpi="96"
   inkscape:version="1.4.3 (0d15f75, 2025-12-25)"
   xmlns:inkscape="http://www.inkscape.org/namespaces/inkscape"
   xmlns:sodipodi="http://sodipodi.sourceforge.net/DTD/sodipodi-0.dtd"
   xmlns="http://www.w3.org/2000/svg"
   xmlns:svg="http://www.w3.org/2000/svg">
  <defs
     id="defs9" />
  <sodipodi:namedview
     id="namedview9"
     pagecolor="#ffffff"
     bordercolor="#000000"
     borderopacity="0.25"
     inkscape:showpageshadow="2"
     inkscape:pageopacity="0.0"
     inkscape:pagecheckerboard="0"
     inkscape:deskcolor="#d1d1d1"
     inkscape:zoom="0.31620731"
     inkscape:cx="192.91142"
     inkscape:cy="-257.7423"
     inkscape:window-width="1720"
     inkscape:window-height="1048"
     inkscape:window-x="4"
     inkscape:window-y="36"
     inkscape:window-maximized="0"
     inkscape:current-layer="svg9" />
  <path
     fill="#8e8e93"
     d="M65.6 127.7c35.3 0 63.9-28.6 63.9-63.9S100.9 0 65.6 0 1.8 28.6 1.8 63.9s28.6 63.8 63.8 63.8"
     id="path1" />
  <path
     fill="#111111"
     d="M65.6 318.1c35.3 0 63.9-28.6 63.9-63.9s-28.6-63.9-63.9-63.9S1.8 219 1.8 254.2s28.6 63.9 63.8 63.9"
     id="path2" />
  <path
     fill="#8e8e93"
     d="M65.6 512c35.3 0 63.9-28.6 63.9-63.9s-28.6-63.9-63.9-63.9-63.8 28.7-63.8 63.9S30.4 512 65.6 512"
     id="path3" />
  <path
     fill="#111111"
     d="M257.2 318.1c35.3 0 63.9-28.6 63.9-63.9s-28.6-63.9-63.9-63.9-63.9 28.6-63.9 63.9 28.6 63.9 63.9 63.9"
     id="path4" />
  <path
     fill="#111111"
     d="M257.2 512c35.3 0 63.9-28.6 63.9-63.9s-28.6-63.9-63.9-63.9-63.9 28.6-63.9 63.9 28.6 63.9 63.9 63.9"
     id="path5" />
  <path
     fill="#8e8e93"
     d="M257.2 127.7c35.3 0 63.9-28.6 63.9-63.9S292.5 0 257.2 0s-63.9 28.6-63.9 63.9 28.6 63.8 63.9 63.8"
     id="path6" />
  <path
     fill="#8e8e93"
     d="M446.4 127.7c35.3 0 63.9-28.6 63.9-63.9S481.6 0 446.4 0c-35.3 0-63.9 28.6-63.9 63.9s28.6 63.8 63.9 63.8"
     id="path7" />
  <path
     fill="#111111"
     d="M446.4 318.1c35.3 0 63.9-28.6 63.9-63.9s-28.6-63.9-63.9-63.9-63.9 28.6-63.9 63.9 28.6 63.9 63.9 63.9"
     id="path8" />
  <path
     fill="#8e8e93"
     d="M446.4 512c35.3 0 63.9-28.6 63.9-63.9s-28.6-63.9-63.9-63.9-63.9 28.6-63.9 63.9 28.6 63.9 63.9 63.9"
     id="path9" />
  <path
     style="fill:#ffffff;stroke-width:3.16248"
     d="m 230.924,309.13264 c -37.35368,-19.0843 -46.8051,-64.66172 -19.64961,-94.75599 13.94466,-15.45376 26.96512,-21.46523 46.49232,-21.46523 48.90566,0 78.19011,55.94816 50.13291,95.77931 -18.14163,25.75461 -50.01152,34.21808 -76.97562,20.44191 z"
     id="path10" />
  <path
     style="fill:#ffffff;stroke-width:3.16248"
     d="m 422.19138,310.42965 c -18.00203,-8.58664 -30.23843,-22.98555 -34.9416,-41.11674 -10.32672,-39.81056 18.71295,-76.48862 60.44931,-76.34947 19.94007,0.0665 37.52818,9.80332 50.15143,27.76401 18.52696,26.36065 10.98959,64.73851 -16.53339,84.1827 -17.0087,12.01616 -40.84108,14.24095 -59.12575,5.5195 z"
     id="path11" />
  <path
     style="fill:#ffffff;stroke-width:3.16248"
     d="M 38.594038,309.51786 C 18.83971,299.73968 3.1254195,275.50333 3.1801191,254.89852 c 0.033231,-12.51769 6.552067,-30.16785 14.7328769,-39.89019 26.685011,-31.71334 75.619411,-28.83366 99.384024,5.84853 6.32488,9.23055 7.62103,15.01114 7.62103,33.98832 0,20.74541 -0.89693,23.9933 -9.67077,35.01902 -19.653896,24.69825 -50.489524,32.60441 -76.653242,19.65366 z"
     id="path12" />
  <path
     style="fill:#ffffff;stroke-width:3.16248"
     d="m 232.44244,504.73065 c -51.14201,-22.53988 -46.81816,-98.20652 6.61963,-115.84258 45.53174,-15.02683 92.31023,31.75166 77.2834,77.28339 -11.18257,33.88352 -51.97548,52.63066 -83.90303,38.55919 z"
     id="path13" />
</svg>
