<?xml version="1.0" encoding="UTF-8" standalone="no"?>
<svg
   viewBox="0 0 598 703"
   width="598"
   height="703"
   version="1.1"
   id="easybar"
   sodipodi:docname="logo.svg"
   inkscape:version="1.4.4 (dcaf3e7, 2026-05-05)"
   xmlns:inkscape="http://www.inkscape.org/namespaces/inkscape"
   xmlns:sodipodi="http://sodipodi.sourceforge.net/DTD/sodipodi-0.dtd"
   xmlns="http://www.w3.org/2000/svg"
   xmlns:svg="http://www.w3.org/2000/svg">
  <defs
     id="defs1" />
  <sodipodi:namedview
     id="namedview1"
     pagecolor="#ffffff"
     bordercolor="#000000"
     borderopacity="0.25"
     inkscape:showpageshadow="2"
     inkscape:pageopacity="0.0"
     inkscape:pagecheckerboard="0"
     inkscape:deskcolor="#d1d1d1"
     inkscape:zoom="0.48065473"
     inkscape:cx="332.87928"
     inkscape:cy="92.582049"
     inkscape:window-width="1720"
     inkscape:window-height="1048"
     inkscape:window-x="4"
     inkscape:window-y="36"
     inkscape:window-maximized="0"
     inkscape:current-layer="easybar" />
  <path
     id="glass"
     fill="#3e8eed"
     fill-rule="evenodd"
     d="M 366.38592,1.842239 C -23.490038,-56.639155 -103.61194,433.27052 157,531 l 35,-48 C -195.59857,187.6868 436.74535,-201.33349 511.8999,264.62474 498.54822,327.18921 395.41075,309.12338 408.15212,321.81655 l 16.51902,42.55705 c 54.74989,-1.12987 85.5963,-9.05211 137.19912,-25.12952 16.5976,-66.3904 23.78432,-288.625005 -195.48434,-337.401841 z"
     sodipodi:nodetypes="cccccccc" />
  <path
     id="cherry"
     fill="#ed8a2a"
     fill-rule="evenodd"
     d="m 113,262 -4,15 108,111 53,63 -2,58 c -22.33783,-0.77005 -42.39902,-11.21741 -63,-19 -6.93024,14.27717 -32,35.41059 -32,50 30.05405,15.86469 63.32112,21.83028 96,30 l 1,58 -8,21 -29,17 -75,13 -13,6 -2,11 11,7 h 272 l 10,-9 -5,-12 -89,-18 -24,-17 -10,-29 1,-44 c 17.5109,-1.63435 251.54033,-24.98919 150,-97 -68.85548,3.62397 14.05927,15.59323 -147,34 l 1,-65 69,-66 -21,-49 -19,11 -66,60 -108,-110 1,-5 126,1 12,-17 -1,-11 -105,-2 z"
     sodipodi:nodetypes="cccccccccccccccccccccccccccccccccccc" />
  <path
     id="letter"
     fill="#ed8a2a"
     d="M 438,182        C 431,182 424,184 418,189        L 401,205        C 396,210 389,213 381,213        L 358,211        C 348,210 340,214 334,222        C 329,229 328,239 330,249        L 334,266        C 335,271 334,276 331,281        C 329,285 331,288 336,288        L 375,289        C 389,289 400,285 408,277        C 416,269 420,258 419,246        C 418,235 413,225 405,217        L 438,189        C 439,188 439,186 439,184        C 439,183 438.7,182 438,182        Z"
     style="fill:#ff0000" />
</svg>
